<?xml version="1.0" encoding="UTF-8" standalone="no" ?>
<!DOCTYPE svg PUBLIC "-//W3C//DTD SVG 1.1//EN" "http://www.w3.org/Graphics/SVG/1.1/DTD/svg11.dtd">
<svg xmlns="http://www.w3.org/2000/svg" xmlns:xlink="http://www.w3.org/1999/xlink" version="1.1" width="500" height="500" viewBox="0 0 500 500" xml:space="preserve">
<desc>Created with Fabric.js 5.3.0</desc>
<defs>
</defs>
<g transform="matrix(3.3412551166 0 0 3.3412551166 250.1508529074 249.6443424568)" id="iycLQKyJ8pxKVTSIDu5Nb"  >
<path style="stroke: rgb(0,0,0); stroke-width: 10; stroke-dasharray: none; stroke-linecap: butt; stroke-dashoffset: 0; stroke-linejoin: miter; stroke-miterlimit: 4; fill: none; fill-rule: nonzero; opacity: 1;"  transform=" translate(0, 0)" d="M 0 -68.11989 C 37.60218 -68.11989 68.11989 -37.60218 68.11989 0 C 68.11989 37.60218 37.60218 68.11989 0 68.11989 C -37.60218 68.11989 -68.11989 37.60218 -68.11989 0 C -68.11989 -37.60218 -37.60218 -68.11989 0 -68.11989 z" stroke-linecap="round" />
</g>
<g transform="matrix(3.061357861 0 0 3.061357861 212.3802002405 250.6870392759)" id="-6XBa-U80nZRmNdhVGHy2"  >
<path style="stroke: rgb(0,0,0); stroke-width: 10; stroke-dasharray: none; stroke-linecap: butt; stroke-dashoffset: 0; stroke-linejoin: miter; stroke-miterlimit: 4; fill: rgb(255,255,255); fill-opacity: 0; fill-rule: nonzero; opacity: 1;"  transform=" translate(0, 0)" d="M -33.03815 -42.57493 L 33.03814 1.7029999999999959 L -33.03815 42.574929999999995" stroke-linecap="round" />
</g>
<g transform="matrix(3.061357861 0 0 3.6460812636 156.1204506673 253.8151297333)" id="AKN-pzdxv0FA9jiz-cvDE"  >
<path style="stroke: rgb(0,0,0); stroke-width: 10; stroke-dasharray: none; stroke-linecap: butt; stroke-dashoffset: 0; stroke-linejoin: miter; stroke-miterlimit: 4; fill: rgb(255,255,255); fill-opacity: 0; fill-rule: nonzero; opacity: 1;"  transform=" translate(0, 0)" d="M 0 -25.88556 L 0 25.88556" stroke-linecap="round" />
</g>
<g transform="matrix(3.061357861 0 0 5.5366419188 366.5199856195 249.6443424568)" id="2aAzwU2uvvr-FI_jhqE89"  >
<path style="stroke: rgb(0,0,0); stroke-width: 10; stroke-dasharray: none; stroke-linecap: butt; stroke-dashoffset: 0; stroke-linejoin: miter; stroke-miterlimit: 4; fill: rgb(255,255,255); fill-opacity: 0; fill-rule: nonzero; opacity: 1;"  transform=" translate(0, 0)" d="M 0 -25.88556 L 0 25.88556" stroke-linecap="round" />
</g>
</svg>